<svg xmlns="http://www.w3.org/2000/svg" width="58" height="58" fill="none"><rect width="58" height="58" fill="#fff" fill-opacity=".05" rx="8"/><rect width="57" height="57" x=".5" y=".5" stroke="#fff" stroke-opacity=".12" rx="7.5"/><path stroke="#fff" stroke-linecap="round" stroke-linejoin="round" stroke-width="1.5" d="M29.312 33.792c-5.204 0-9.641.85-9.641 4.254 0 3.406 4.414 4.286 9.641 4.286 5.2 0 9.641-.853 9.641-4.257 0-3.402-4.412-4.283-9.641-4.283Zm6.657-11.466a6.66 6.66 0 1 1-13.318 0 6.66 6.66 0 0 1 13.318 0Z" clip-rule="evenodd"/><path stroke="#fff" stroke-linecap="round" stroke-linejoin="round" stroke-width="1.5" d="M18.474 31.376h-.014c-2.874.448-4.883 1.493-4.883 3.601 0 1.088.54 1.894 1.464 2.479m24.988-6.08h.013c2.874.448 4.883 1.493 4.883 3.601 0 1.088-.54 1.894-1.463 2.479m-3.949-11.109a4.494 4.494 0 0 0 2.773-5.322 4.496 4.496 0 0 0-3.716-3.34m-19.581 8.662a4.494 4.494 0 0 1-2.774-5.322 4.496 4.496 0 0 1 3.716-3.34"/></svg>