<svg xmlns="http://www.w3.org/2000/svg" width="58" height="58" fill="none"><rect width="58" height="58" fill="#fff" fill-opacity=".05" rx="8"/><rect width="57" height="57" x=".5" y=".5" stroke="#fff" stroke-opacity=".12" rx="7.5"/><path stroke="#fff" stroke-linecap="round" stroke-linejoin="round" stroke-width="1.5" d="M14.85 28.212 27.028 41.59a2.665 2.665 0 0 0 3.944 0L43.15 28.21a3.265 3.265 0 0 0 .284-4.037L38.53 16.97a3.27 3.27 0 0 0-2.7-1.427H22.185c-1.08 0-2.09.534-2.698 1.425l-4.918 7.205a3.265 3.265 0 0 0 .282 4.04Z"/><path stroke="#fff" stroke-linecap="round" stroke-linejoin="round" stroke-width="1.5" d="m32.331 15.543 2.279 8.63c.33 1.25.285 2.92-.11 4.038l-4.734 13.38c-.41 1.162-1.122 1.162-1.532 0L23.5 28.211c-.395-1.119-.44-2.79-.108-4.039l2.285-8.63M14.013 26.005h29.972"/></svg>