<svg xmlns="http://www.w3.org/2000/svg" width="258" height="90" fill="none"><path fill="#EE305A" fill-rule="evenodd" d="M20.14 0h69.045v69.046c0 11.076-9.063 20.14-20.139 20.14h-48.62C9.19 89.185 0 79.992 0 68.76V20.14C0 9.062 9.063 0 20.14 0Z" clip-rule="evenodd"/><path fill="#fff" d="m17.21 17.873 36.735 8.783-27.913 27.962-11.794-1.073-2.73 2.73 14.615 6.763 6.761 14.612 2.767-2.767-1.106-11.757 27.913-27.963 8.835 36.787 6.338-6.341c-.082-43.88.146-8.093.003-54.08h-54.08l-6.34 6.341-.003.003Z"/><path fill="#373535" d="M114.816 21.553c0-2.81.533-5.255 1.6-7.331 1.067-2.079 2.598-3.68 4.592-4.804 1.994-1.122 4.339-1.686 7.037-1.686 2.76 0 5.287.597 7.66 1.804 0 0-.002.011-2.1 5.527-1.518-.841-3.259-1.265-5.225-1.265-4.212 0-6.319 2.53-6.319 7.584v7.837h9.776l-2.178 5.73h-7.598v31.18h-7.245v-31.18h-6.743v-5.73h6.743v-7.67.004ZM220.392 64.53c-3.299 1.852-6.992 2.78-11.081 2.78-2.079 0-3.99-.405-5.758-1.222-1.757-.81-3.198-2.125-4.312-3.918-1.116-1.801-1.685-4.073-1.685-6.825V37.227h-6.91V28.21h6.91V19.7l11.375-1.6v10.11h20.821l8.258 26.797c6.91-26.797 4.496-17.783 6.91-26.797h12.641l-13.988 37.92h-11.544l-10.982-28.903h-12.113v16.347c0 1.683.294 2.865.885 3.539.589.674 1.419 1.012 2.486 1.012.787 0 1.546-.099 2.274-.294.732-.196 1.81-.583 2.877-1.031l2.936 7.732v-.003ZM139.225 7.732h7.246V66.13h-7.246V7.732Zm48.393 20.478-14.433 40.53c-1.221 3.432-2.558 6.165-3.96 8.216-1.405 2.052-2.992 3.54-4.76 4.466-1.771.927-3.863 1.391-6.278 1.391-2.472 0-5.073-.47-7.487-1.311l2.095-5.514c1.631.506 3.231.724 4.804.76 7.152.153 8.51-7.923 8.51-7.923L150.664 28.21h7.669l9.041 24.605.927 2.527 1.347 3.96 2.107-6.49 8.452-24.605h7.416l-.005.003Z"/></svg>