<svg xmlns="http://www.w3.org/2000/svg" width="58" height="58" fill="none"><rect width="58" height="58" fill="#fff" fill-opacity=".05" rx="8"/><rect width="57" height="57" x=".5" y=".5" stroke="#fff" stroke-opacity=".12" rx="7.5"/><path stroke="#fff" stroke-linecap="round" stroke-linejoin="round" stroke-width="1.5" d="M44 23.115v-2.628A6.487 6.487 0 0 0 37.51 14h-2.095M14 23.115v-2.628A6.487 6.487 0 0 1 20.488 14h2.149M14 34.885v2.629A6.487 6.487 0 0 0 20.488 44h2.095M44 34.885v2.629A6.487 6.487 0 0 1 37.512 44h-2.148"/><path stroke="#fff" stroke-linecap="round" stroke-linejoin="round" stroke-width="1.5" d="M32.754 20.98H25.24c-2.617 0-4.259 1.853-4.259 4.476v7.079c0 2.622 1.633 4.476 4.259 4.476h7.513c2.625 0 4.26-1.854 4.26-4.476v-7.078c0-2.624-1.635-4.478-4.26-4.478Z" clip-rule="evenodd"/><path stroke="#fff" stroke-linecap="round" stroke-linejoin="round" stroke-width="1.5" d="M32.19 26.162a3.188 3.188 0 1 1-6.377 0"/></svg>