<svg xmlns="http://www.w3.org/2000/svg" width="58" height="58" fill="none"><rect width="58" height="58" fill="#fff" fill-opacity=".05" rx="8"/><rect width="57" height="57" x=".5" y=".5" stroke="#fff" stroke-opacity=".12" rx="7.5"/><path stroke="#fff" stroke-linecap="round" stroke-linejoin="round" stroke-width="1.5" d="M31.348 33.962H26.65a2.619 2.619 0 0 1-2.618-2.62v-4.695a2.62 2.62 0 0 1 2.618-2.621h4.697a2.621 2.621 0 0 1 2.62 2.62v4.697a2.62 2.62 0 0 1-2.62 2.619Z" clip-rule="evenodd"/><path stroke="#fff" stroke-linecap="round" stroke-linejoin="round" stroke-width="1.5" d="m44 14-6.56 6.56m-.216-6.545L43.998 14l-.015 6.773M44 43.997l-6.56-6.56m-.216 6.543 6.774.016-.015-6.773M14 14l6.56 6.56m.213-6.545L14 14l.015 6.773M14 43.997l6.56-6.56m.213 6.543L14 43.997l.015-6.773"/></svg>