<svg xmlns="http://www.w3.org/2000/svg" width="58" height="58" fill="none"><rect width="58" height="58" fill="#fff" fill-opacity=".05" rx="8"/><rect width="57" height="57" x=".5" y=".5" stroke="#fff" stroke-opacity=".12" rx="7.5"/><path stroke="#fff" stroke-linecap="round" stroke-linejoin="round" stroke-width="1.5" d="M20.543 27.767a6.541 6.541 0 1 1 0 13.082 6.541 6.541 0 1 1 0-13.082Zm0 0V17.15m4.11 4.127-4.111-4.127-4.113 4.127m21.027 19.17V30.414m3.271 6.423h-6.543M44 23.874a6.541 6.541 0 0 0-6.541-6.541 6.542 6.542 0 1 0 0 13.082A6.541 6.541 0 0 0 44 23.874Z"/></svg>