<svg xmlns="http://www.w3.org/2000/svg" width="58" height="58" fill="none"><rect width="58" height="58" fill="#fff" fill-opacity=".05" rx="8"/><rect width="57" height="57" x=".5" y=".5" stroke="#fff" stroke-opacity=".12" rx="7.5"/><path stroke="#fff" stroke-linecap="round" stroke-linejoin="round" stroke-width="1.5" d="M37.675 36.863a6.715 6.715 0 0 0 6.715-6.715v-9.094a6.715 6.715 0 0 0-6.715-6.715H21.104a6.715 6.715 0 0 0-6.714 6.715v9.094a6.715 6.715 0 0 0 6.714 6.715"/><path stroke="#fff" stroke-linecap="round" stroke-linejoin="round" stroke-width="1.5" d="M24.827 43.661h9.123a1.298 1.298 0 0 0 1.129-1.94l-4.534-7.956a1.296 1.296 0 0 0-2.251-.007l-4.59 7.956c-.5.866.124 1.947 1.123 1.947Z" clip-rule="evenodd"/></svg>