<svg xmlns="http://www.w3.org/2000/svg" width="211" height="94" fill="none"><path fill="#1F4BAA" d="M2.739 70.28V42.588h8.367l5.025 18.888 4.967-18.888h8.387v27.69H24.29V48.482l-5.496 21.797H13.41L7.933 48.482v21.797H2.74Zm43.877-6.385 5.29.888c-.68 1.939-1.758 3.418-3.23 4.438-1.462 1.008-3.294 1.511-5.497 1.511-3.488 0-6.07-1.14-7.745-3.418-1.322-1.826-1.983-4.13-1.983-6.913 0-3.325.87-5.925 2.607-7.801 1.738-1.89 3.935-2.834 6.592-2.834 2.984 0 5.339.989 7.064 2.966 1.725 1.964 2.55 4.98 2.474 9.047H38.891c.038 1.574.466 2.802 1.285 3.684.818.869 1.838 1.303 3.06 1.303.83 0 1.53-.227 2.096-.68.567-.453.995-1.184 1.284-2.191Zm.303-5.364c-.038-1.537-.435-2.701-1.19-3.495-.756-.806-1.675-1.209-2.758-1.209-1.158 0-2.115.422-2.871 1.266-.756.844-1.127 1.99-1.114 3.438h7.933ZM74.93 70.279H70v-2.946c-.818 1.145-1.788 2.002-2.909 2.568-1.108.554-2.228.832-3.362.832-2.304 0-4.281-.926-5.93-2.777-1.638-1.864-2.456-4.458-2.456-7.782 0-3.4.8-5.981 2.399-7.744 1.599-1.776 3.62-2.664 6.063-2.664 2.241 0 4.18.932 5.817 2.796v-9.973h5.308v27.69ZM60.764 59.815c0 2.14.296 3.69.887 4.647.857 1.385 2.053 2.077 3.59 2.077 1.22 0 2.26-.516 3.116-1.549.856-1.045 1.284-2.6 1.284-4.665 0-2.304-.415-3.96-1.246-4.968-.831-1.02-1.895-1.53-3.192-1.53-1.26 0-2.317.504-3.174 1.512-.843.994-1.265 2.486-1.265 4.476ZM80.18 47.5v-4.911h5.308v4.91H80.18Zm0 22.78V50.22h5.308v20.06H80.18Zm14.733-13.94-4.817-.87c.542-1.938 1.474-3.374 2.796-4.306 1.322-.932 3.286-1.398 5.893-1.398 2.367 0 4.13.284 5.289.85 1.158.554 1.97 1.266 2.436 2.135.479.856.718 2.436.718 4.74l-.057 6.196c0 1.763.082 3.066.246 3.91.176.831.497 1.725.963 2.682h-5.251a19.956 19.956 0 0 1-.51-1.568 9.275 9.275 0 0 0-.189-.623c-.906.882-1.876 1.543-2.908 1.983a8.331 8.331 0 0 1-3.306.662c-2.065 0-3.696-.56-4.892-1.682-1.184-1.12-1.775-2.537-1.775-4.25 0-1.133.27-2.14.812-3.022a5.24 5.24 0 0 1 2.266-2.04c.983-.478 2.393-.894 4.231-1.246 2.481-.466 4.2-.9 5.157-1.303v-.53c0-1.02-.252-1.743-.756-2.171-.503-.441-1.454-.662-2.852-.662-.944 0-1.68.19-2.21.567-.529.365-.957 1.014-1.284 1.946Zm7.102 4.306c-.68.227-1.757.498-3.23.812-1.473.315-2.437.624-2.89.926-.692.49-1.039 1.114-1.039 1.87 0 .743.277 1.385.831 1.926.554.542 1.26.813 2.116.813.957 0 1.87-.315 2.739-.945.642-.478 1.064-1.064 1.265-1.756.139-.454.208-1.316.208-2.588v-1.058Z"/><path fill="#1F4BAA" fill-rule="evenodd" d="m97.647 93.024 85.058-.64c1.876-6.067 3.77-12.127 5.67-18.187-3.709-.16-6.206-2.137-5.686-6.952l.849-8.123h-3.055l.542-5.26h3.055l.542-5.145h6.693l-.542 5.145h3.971c3.321-10.655 6.607-21.319 9.772-32.007 1.983-6.126 5.17-15.78 6.267-21.852-16.089-.069-25.757 1.028-37.113 8.664-3.476 2.338-20.346 20.123-37.328 38.832 2.777 1.35 4.399 4.04 4.375 7.757-.039 6.19-4.757 10.485-11.104 10.485h-3.52l-.89 8.238h-6.809l.767-7.262c-11.282 12.844-20.177 23.497-21.517 26.31l.003-.003Zm18.278-8.15h1.71l.553-5.335h1.515l.176-1.564h-4.721l-.165 1.564h1.487l-.552 5.335h-.003Zm5.004.096c.817 0 1.4-.487 1.447-.575h.069l-.058.476h1.68l.525-5.051h-1.68l-.058.476h-.058c-.057-.088-.467-.572-1.369-.572-1.488 0-2.612 1.32-2.612 2.914 0 1.526 1.05 2.332 2.117 2.332h-.003Zm-.448-2.488c0-.905.699-1.273 1.235-1.273.426 0 .97.233.97.99 0 .912-.698 1.28-1.234 1.28-.426 0-.971-.233-.971-1v.003Zm6.294 2.488c1.166 0 2.079-.632 2.079-1.7 0-.893-.66-1.261-1.078-1.399l-.759-.291c-.233-.077-.261-.176-.261-.28 0-.166.116-.273.36-.273.146 0 .407.038.545.445l1.322-.36c-.096-.816-.844-1.388-1.817-1.388-1.07 0-2.029.69-2.029 1.68 0 .572.321 1.097 1.069 1.36l.66.254c.264.077.341.176.341.33 0 .234-.195.322-.407.322-.476 0-.613-.36-.679-.534l-1.342.38c.096.97.943 1.457 2.002 1.457l-.006-.003Zm2.536-.096h1.68l.283-2.681c.069-.525.261-.982.883-.982.594 0 .805.457.739.982l-.272 2.68h1.672l.322-2.972c.154-1.545-.671-2.175-1.672-2.175-.671 0-1.155.273-1.477.671l.261-2.42h-1.68l-.739 6.897Zm5.848 0h1.68l.088-.874.652-.69 1.07 1.564h1.864l-1.864-2.692 2.244-2.362h-2.021l-1.7 1.914.388-3.76h-1.68l-.718 6.897-.003.003Zm7.81.096c.913 0 1.622-.407 2.089-.904l-.632-.798a2.099 2.099 0 0 1-1.174.341c-.553 0-.982-.203-1.166-.613h3.44c.572-2.351-.894-3.275-2.205-3.275a2.805 2.805 0 0 0-2.819 2.827c0 1.573 1.155 2.42 2.467 2.42v.002Zm-.845-3.157c.176-.407.534-.69 1.07-.69.457 0 .875.204.952.69h-2.022Zm3.858 3.06h1.68l.281-2.68c.069-.525.261-.982.883-.982.594 0 .797.457.739.982l-.272 2.68h1.672l.322-2.972c.154-1.545-.671-2.175-1.672-2.175-.671 0-1.166.28-1.488.68l.058-.583h-1.68l-.525 5.05h.002Zm7.958.059c.38 0 .855-.07 1.051-.284l.145-1.273a1.774 1.774 0 0 1-.486.077c-.476 0-.583-.291-.553-.525l.184-1.787h1.07l.134-1.323h-1.069l.135-1.292h-1.681l-.134 1.292h-.767l-.135 1.323h.767l-.214 2.04c-.135 1.262.555 1.749 1.553 1.749v.003Zm36.371-16.911c.929-2.967 1.862-5.934 2.788-8.901h-2.87l-.735 7.119c-.079.635.094 1.375.814 1.782h.003Zm-58.792-15.19a1322.17 1322.17 0 0 0-4.554 5.079l-.173 1.598h2.785c2.244 0 4.218-.62 4.257-3.52.03-2.021-.888-2.893-2.313-3.157h-.002Zm18.288 21.53c6.267 0 11.566-4.757 11.566-11.218 0-6.537-5.376-9.671-9.864-9.671-6.266 0-11.565 4.718-11.565 11.219 0 6.536 5.414 9.67 9.863 9.67Zm-3.365-9.863c0-3.211 2.051-5.145 4.757-5.145 1.74 0 3.715 1.315 3.715 4.023 0 3.132-2.052 5.107-4.799 5.107-1.74 0-3.673-1.315-3.673-3.985Zm16.286 9.479h6.693l.93-8.822c.695-3.093 2.862-5.26 6.459-5.26.734 0 1.314.077 1.702.154l.696-6.305c-.542-.231-1.084-.27-1.549-.27-3.791 0-5.801 2.748-6.769 6.229l.618-5.84h-6.693l-2.089 20.114h.002Z" clip-rule="evenodd"/></svg>