<svg xmlns="http://www.w3.org/2000/svg" width="130" height="142" fill="none"><path fill="#D93A3E" d="M100.985 125.161v15.769a.917.917 0 0 0 1.405.776l27.338-17.194a.923.923 0 0 0 .269-.27h-29.928c.506 0 .918.41.918.919h-.002Z"/><path fill="#fff" fill-rule="evenodd" d="M3.448 0H126.55a3.457 3.457 0 0 1 3.448 3.448v117.346a3.457 3.457 0 0 1-3.448 3.448H3.449A3.457 3.457 0 0 1 0 120.794V3.448A3.457 3.457 0 0 1 3.448 0Z" clip-rule="evenodd"/><path fill="#292929" d="M25.576 93.973c-1.411 0-2.522.49-3.336 1.465a.057.057 0 0 1-.09-.002c-.694-.977-1.694-1.463-3.006-1.463-1.1 0-1.99.316-2.673.948-.035.036-.096.009-.096-.04v-.573a.058.058 0 0 0-.058-.058h-2.34a.056.056 0 0 0-.058.058v9.16c0 .03.025.057.058.057h2.34a.056.056 0 0 0 .058-.057v-4.406c0-.954.187-1.666.558-2.136.371-.47.894-.707 1.562-.707.52 0 .954.184 1.3.55.347.366.52.853.52 1.457v5.242c0 .03.025.057.058.057h2.34c.03 0 .058-.024.058-.057v-4.406c0-.943.192-1.65.575-2.128.384-.476.91-.715 1.58-.715.52 0 .955.184 1.301.55.347.366.52.853.52 1.457v5.242c0 .03.025.057.058.057h2.32a.056.056 0 0 0 .058-.057v-5.742c0-1.103-.352-2.004-1.058-2.703a3.481 3.481 0 0 0-2.547-1.05h-.002Zm12.151 3.847h-4.328c-.036 0-.066-.036-.055-.072a2.06 2.06 0 0 1 .844-1.19 2.49 2.49 0 0 1 1.421-.446c.52 0 .98.143 1.375.426.38.272.647.677.798 1.21a.058.058 0 0 1-.055.074v-.002Zm-2.117-3.847c-1.35 0-2.489.462-3.41 1.386-.924.923-1.386 2.103-1.386 3.541 0 1.438.46 2.615 1.375 3.531.916.918 2.043 1.375 3.382 1.375 1.04 0 1.952-.242 2.73-.723.765-.473 1.342-1.164 1.738-2.074a.058.058 0 0 0-.04-.079l-2.085-.443c-.025-.006-.047.005-.06.027-.485.795-1.246 1.191-2.283 1.191a2.15 2.15 0 0 1-1.496-.583c-.412-.377-.684-.877-.814-1.501a.056.056 0 0 1 .055-.07h6.935c.03 0 .058-.024.058-.057v-.778c-.05-1.389-.53-2.524-1.441-3.41-.91-.888-2-1.33-3.261-1.33l.002-.003Zm12.637 6.924c-.533.514-1.147.773-1.84.773-.756 0-1.377-.253-1.867-.754-.489-.503-.734-1.174-.734-2.016 0-.84.245-1.517.734-2.026.49-.509 1.111-.762 1.867-.762.694 0 1.31.262 1.84.781.534.52.8 1.188.8 2.007 0 .82-.266 1.485-.8 2v-.003Zm.858-10.752a.056.056 0 0 0-.058.058v4.675a.057.057 0 0 1-.093.044c-.8-.633-1.793-.946-2.973-.946-1.212 0-2.276.467-3.187 1.402-.91.935-1.366 2.11-1.366 3.522 0 1.414.45 2.585 1.355 3.512.905.929 1.972 1.394 3.198 1.394 1.169 0 2.162-.311 2.975-.932.039-.03.094-.003.094.044v.55c0 .03.025.058.058.058h2.337c.03 0 .058-.025.058-.058V90.2a.058.058 0 0 0-.058-.057h-2.337l-.003.002Zm5.181 4.109a.056.056 0 0 0-.058.058v9.159c0 .033.025.058.058.058h2.34c.03 0 .058-.025.058-.058v-9.16a.058.058 0 0 0-.058-.057h-2.34Zm1.171-4.238c-.423 0-.775.145-1.061.437a1.432 1.432 0 0 0-.426 1.031c0 .41.14.75.418 1.023.28.272.635.407 1.07.407.42 0 .775-.135 1.058-.407a1.35 1.35 0 0 0 .426-1.023c0-.396-.143-.74-.426-1.031a1.419 1.419 0 0 0-1.059-.437Zm10.033 10.881c-.533.514-1.146.772-1.839.772-.756 0-1.377-.253-1.867-.753-.49-.503-.734-1.174-.734-2.016 0-.841.245-1.518.734-2.026.49-.51 1.111-.762 1.867-.762.693 0 1.306.261 1.84.78.533.52.8 1.189.8 2.008 0 .82-.267 1.485-.8 1.999v-.002Zm.859-6.647a.058.058 0 0 0-.058.058v.567a.058.058 0 0 1-.094.044c-.8-.633-1.792-.946-2.972-.946-1.213 0-2.277.467-3.187 1.402-.91.935-1.367 2.11-1.367 3.522 0 1.414.451 2.585 1.356 3.512.905.929 1.972 1.394 3.198 1.394 1.171 0 2.161-.311 2.972-.932.039-.03.094-.003.094.044v.55c0 .03.025.058.058.058h2.34c.03 0 .058-.025.058-.058v-9.16a.056.056 0 0 0-.058-.057h-2.34v.002Zm15.44 5.941a2.512 2.512 0 0 1-1.746.679c-.743 0-1.359-.225-1.84-.668-.484-.445-.726-1.028-.726-1.746 0-.72.242-1.3.726-1.746.484-.448 1.097-.671 1.84-.671a2.5 2.5 0 0 1 1.746.68c.495.45.742 1.03.742 1.737 0 .707-.248 1.284-.742 1.738v-.003Zm3.046-5.94H82.59a.056.056 0 0 0-.058.058v.404c0 .047-.055.075-.094.047-.717-.522-1.66-.783-2.823-.783-1.191 0-2.236.437-3.14 1.308-.905.875-1.356 1.93-1.356 3.17 0 1.252.45 2.319 1.355 3.199.905.88 1.953 1.317 3.14 1.317 1.238 0 2.211-.283 2.918-.855v.148c0 .803-.234 1.438-.698 1.895-.465.459-1.095.687-1.887.687-.583 0-1.053-.104-1.413-.308-.35-.198-.707-.528-1.08-.987a.057.057 0 0 0-.08-.008l-1.903 1.441a.057.057 0 0 0-.014.077c.86 1.333 2.356 1.999 4.487 1.999 1.524 0 2.734-.388 3.625-1.163.89-.776 1.336-1.862 1.336-3.264l-.02-8.324a.058.058 0 0 0-.057-.058h.008Zm8.755 6.646c-.533.514-1.146.772-1.839.772-.756 0-1.38-.253-1.87-.753-.49-.503-.734-1.174-.734-2.016 0-.841.245-1.518.734-2.026.49-.51 1.114-.762 1.87-.762.693 0 1.306.261 1.84.78.533.52.8 1.189.8 2.008 0 .82-.267 1.485-.8 1.999v-.002Zm.856-6.647a.056.056 0 0 0-.058.058v.567a.058.058 0 0 1-.093.044c-.803-.633-1.793-.946-2.973-.946-1.213 0-2.277.467-3.19 1.402-.91.935-1.363 2.11-1.363 3.522 0 1.414.45 2.585 1.355 3.512.905.929 1.972 1.394 3.198 1.394 1.169 0 2.161-.311 2.975-.932.039-.03.094-.003.094.044v.55c0 .03.025.058.058.058h2.34c.03 0 .057-.025.057-.058v-9.16a.056.056 0 0 0-.057-.057h-2.34l-.003.002Zm10.977 6.855c-.534.278-1.029.415-1.485.415-.905 0-1.356-.533-1.356-1.597v-3.605c0-.03.025-.058.058-.058h2.915c.03 0 .057-.025.057-.058v-1.891a.056.056 0 0 0-.057-.058h-2.915a.057.057 0 0 1-.058-.058v-2.692a.057.057 0 0 0-.058-.058h-2.34a.058.058 0 0 0-.057.058v2.692a.057.057 0 0 1-.058.058h-1.876a.056.056 0 0 0-.057.058v1.891c0 .03.025.058.058.058h1.875c.033 0 .058.025.058.058v3.792c0 1.237.324 2.164.967 2.777.644.613 1.538.918 2.679.918.742 0 1.534-.22 2.373-.662a.058.058 0 0 0 .027-.069l-.671-1.936a.055.055 0 0 0-.079-.03v-.003Zm8.068-3.285h-4.329a.056.056 0 0 1-.055-.072c.143-.511.424-.907.845-1.19.44-.298.912-.446 1.421-.446.52 0 .979.143 1.375.426.38.272.646.677.797 1.21a.058.058 0 0 1-.054.074v-.002Zm-2.118-3.847c-1.35 0-2.488.462-3.409 1.386-.924.923-1.386 2.103-1.386 3.541 0 1.438.459 2.615 1.375 3.531.915.918 2.043 1.375 3.382 1.375 1.039 0 1.952-.242 2.733-.723.762-.473 1.342-1.164 1.738-2.074a.058.058 0 0 0-.041-.079l-2.085-.443c-.025-.006-.047.005-.06.027-.487.795-1.246 1.191-2.285 1.191-.569 0-1.07-.195-1.496-.583-.415-.377-.685-.877-.814-1.501a.056.056 0 0 1 .055-.07h6.935a.057.057 0 0 0 .058-.057v-.778c-.05-1.389-.531-2.524-1.441-3.41-.911-.888-1.997-1.33-3.262-1.33l.003-.003Z"/><path fill="#304E73" d="M97.283 59.835h18.157a.291.291 0 0 0 .291-.291V43.007c0-7.771-2.458-14.016-7.372-18.74-4.916-4.721-11.28-7.083-19.091-7.083-4.037 0-7.815.868-11.335 2.606-3.52 1.738-6.244 4.026-8.177 6.858-3.693-6.31-9.811-9.464-18.352-9.464-8.156 0-14.318 3.027-18.481 9.076v-7.498a.292.292 0 0 0-.292-.291H14.604a.29.29 0 0 0-.291.291v64.196a.29.29 0 0 0 .291.291h18.027c.16 0 .292-.13.292-.291V47.38c0-3.992 1.094-7.061 3.283-9.209 2.189-2.147 4.914-3.22 8.178-3.22 3.434 0 6.16 1.117 8.178 3.35 2.018 2.233 3.027 5.26 3.027 9.08v35.576c0 .162.13.291.291.291h18.028a.29.29 0 0 0 .291-.291V47.38c0-3.948 1.128-7.006 3.38-9.176 2.252-2.166 5.032-3.252 8.34-3.252 3.349 0 6.03 1.116 8.048 3.349 2.019 2.233 3.028 5.26 3.028 9.08V59.54c0 .16.129.291.291.291l-.003.003Z"/><path fill="#D93A3E" d="m106.916 88.797 8.675-5.455a.288.288 0 0 0 .138-.248V64.811a.292.292 0 0 0-.292-.292H97.284a.293.293 0 0 0-.292.292v18.154c0 .16.13.291.292.291h8.895a.29.29 0 0 1 .292.292v5.004a.29.29 0 0 0 .445.245Z"/></svg>