<svg xmlns="http://www.w3.org/2000/svg" width="58" height="58" fill="none"><rect width="58" height="58" fill="#fff" fill-opacity=".05" rx="8"/><rect width="57" height="57" x=".5" y=".5" stroke="#fff" stroke-opacity=".12" rx="7.5"/><path stroke="#fff" stroke-linecap="round" stroke-linejoin="round" stroke-miterlimit="10" stroke-width="1.5" d="M42.097 32.371c.026 4.542-3.36 9.307-6.904 10.96-4.522 2.108-13.878-1.012-15.538-5.888-1.054-3.094-1.493-6.543-1.489-9.49.003-1.58 1.293-2.814 2.873-2.842a3.029 3.029 0 0 1 2.983 2.267l.88 3.38 5.435-14.934a2.77 2.77 0 0 1 5.221 1.855l-2.348 6.773c3.517 1.674 8.861 3.406 8.887 7.92ZM22.314 14.475l3.096 1.747-1.746 3.096"/><path stroke="#fff" stroke-linecap="round" stroke-linejoin="round" stroke-miterlimit="10" stroke-width="1.5" d="M25.412 16.246c-4.088.711-7.616 2.138-9.508 5.327"/></svg>