<svg xmlns="http://www.w3.org/2000/svg" width="58" height="58" fill="none"><rect width="58" height="58" fill="#fff" fill-opacity=".05" rx="8"/><rect width="57" height="57" x=".5" y=".5" stroke="#fff" stroke-opacity=".12" rx="7.5"/><path stroke="#fff" stroke-linecap="round" stroke-linejoin="round" stroke-width="1.5" d="M22.986 42.515c-3.428-1.536-6.285-4.359-7.74-8.132-2.905-7.559.85-16.034 8.41-18.957 6.891-2.662 14.565.246 18.06 6.531"/><path stroke="#fff" stroke-linecap="round" stroke-linejoin="round" stroke-width="1.5" d="M42.259 17.066v4.89h-4.864m-8.398.299v6.84H23.36m19.11 14.467v-2.118m0 0h1.794m-1.794 0h-5.163l5.163-7.18v7.18Zm-13.083-4.672a2.477 2.477 0 0 1 2.476-2.476 2.476 2.476 0 0 1 2.474 2.476c0 3.093-4.948 3.093-4.948 6.756h4.948"/></svg>