<svg xmlns="http://www.w3.org/2000/svg" width="58" height="58" fill="none"><rect width="58" height="58" fill="#fff" fill-opacity=".05" rx="8"/><rect width="57" height="57" x=".5" y=".5" stroke="#fff" stroke-opacity=".12" rx="7.5"/><path stroke="#fff" stroke-linecap="round" stroke-linejoin="round" stroke-width="1.5" d="m26.321 25.367-2.654 7.268-2.653-7.268m9.104 0v7.268M34.4 29.78v-4.413h2.554a2.206 2.206 0 0 1 0 4.413h-2.553Zm0 0v2.698"/><path stroke="#fff" stroke-linecap="round" stroke-linejoin="round" stroke-width="1.5" d="M17.268 28.996a3.135 3.135 0 0 0-1.698-2.801c-.687-.36-1.032-.54-1.123-.614-.32-.258-.344-.298-.424-.701-.023-.116-.023-.31-.023-.698 0-1.808 0-2.712.213-3.45a5.403 5.403 0 0 1 3.68-3.68c.739-.213 1.642-.213 3.45-.213h15.312c1.803 0 2.707 0 3.442.213a5.404 5.404 0 0 1 3.686 3.689c.212.736.212 1.638.21 3.443-.014 3.241.007 6.43.007 9.645 0 1.8 0 2.699-.212 3.434a5.401 5.401 0 0 1-3.69 3.688c-.733.212-1.633.212-3.433.212H21.343c-1.806 0-2.71 0-3.448-.214a5.398 5.398 0 0 1-3.68-3.681c-.215-.737-.215-1.641-.213-3.448 0-.388 0-.582.021-.697.08-.403.104-.441.424-.7.091-.074.435-.255 1.123-.618a3.15 3.15 0 0 0 1.698-2.81Zm12.85-8.372v-3.785m0 24.325V37.38"/></svg>